<mxfile host="app.diagrams.net" modified="2024-04-19T09:55:20.599Z" agent="Mozilla/5.0 (Windows NT 10.0; Win64; x64) AppleWebKit/537.36 (KHTML, like Gecko) Chrome/123.0.0.0 Safari/537.36 Edg/123.0.0.0" etag="Dpq_ABTeJz39wM-xlnfx" version="23.1.5" type="device">
  <diagram name="Page-1" id="TebZkhfqnGrhfPmEN5PG">
    <mxGraphModel dx="1279" dy="714" grid="1" gridSize="10" guides="1" tooltips="1" connect="1" arrows="1" fold="1" page="1" pageScale="1" pageWidth="1654" pageHeight="1169" math="0" shadow="0">
      <root>
        <mxCell id="0" />
        <mxCell id="1" parent="0" />
        <mxCell id="s2jeRjrW5CzpTrKZsJKX-1" value="&lt;p style=&quot;margin:0px;margin-top:4px;text-align:center;&quot;&gt;&lt;b&gt;db_rework_report.&lt;/b&gt;&lt;/p&gt;&lt;p style=&quot;margin:0px;margin-top:4px;text-align:center;&quot;&gt;&lt;b&gt;tb_rework&lt;/b&gt;&lt;/p&gt;&lt;hr size=&quot;1&quot;&gt;&lt;p style=&quot;margin:0px;margin-left:4px;&quot;&gt;+ hdrid: nvarchar(50)&lt;/p&gt;&lt;p style=&quot;margin:0px;margin-left:4px;&quot;&gt;+ transaction_date: date&lt;/p&gt;&lt;p style=&quot;margin:0px;margin-left:4px;&quot;&gt;+ part_number: nvarchar(50)&lt;/p&gt;&lt;p style=&quot;margin:0px;margin-left:4px;&quot;&gt;+ part_name: nvarchar(50)&lt;/p&gt;&lt;p style=&quot;margin:0px;margin-left:4px;&quot;&gt;+ cust_name: nvarchar(50)&lt;/p&gt;&lt;p style=&quot;margin:0px;margin-left:4px;&quot;&gt;+ cust_name2: nvarchar(50)&lt;/p&gt;&lt;p style=&quot;margin:0px;margin-left:4px;&quot;&gt;+ problem: nvarchar(500)&lt;/p&gt;&lt;p style=&quot;margin:0px;margin-left:4px;&quot;&gt;+ occ_place: nvarchar(500)&lt;/p&gt;&lt;p style=&quot;margin:0px;margin-left:4px;&quot;&gt;+ occ_date: date&lt;/p&gt;&lt;p style=&quot;margin:0px;margin-left:4px;&quot;&gt;+ ng_qty: nvarchar(50)&lt;/p&gt;&lt;p style=&quot;margin:0px;margin-left:4px;&quot;&gt;+ defect_lot: nvarchar(500)&lt;/p&gt;&lt;p style=&quot;margin:0px;margin-left:4px;&quot;&gt;+ area: nvarchar(500)&lt;/p&gt;&lt;p style=&quot;margin:0px;margin-left:4px;&quot;&gt;+ sketch1: nvarchar(100)&lt;/p&gt;&lt;p style=&quot;margin:0px;margin-left:4px;&quot;&gt;+ deskripsi1: nvarchar(500)&lt;/p&gt;&lt;p style=&quot;margin:0px;margin-left:4px;&quot;&gt;+ sketch2: nvarchar(100)&lt;/p&gt;&lt;p style=&quot;margin:0px;margin-left:4px;&quot;&gt;+ deskripsi2: nvarchar(500)&lt;/p&gt;&lt;p style=&quot;margin:0px;margin-left:4px;&quot;&gt;+ sketch3: nvarchar(100)&lt;/p&gt;&lt;p style=&quot;margin:0px;margin-left:4px;&quot;&gt;+ deskripsi3: nvarchar(500)&lt;/p&gt;&lt;p style=&quot;margin:0px;margin-left:4px;&quot;&gt;+ checking_method: nvarchar(500)&lt;/p&gt;&lt;p style=&quot;margin:0px;margin-left:4px;&quot;&gt;+ attach_ik: nvarchar(100)&lt;/p&gt;&lt;p style=&quot;margin:0px;margin-left:4px;&quot;&gt;+ marking_photo: nvarchar(100)&lt;/p&gt;&lt;p style=&quot;margin:0px;margin-left:4px;&quot;&gt;+ marking: nvarchar(500)&lt;/p&gt;&lt;p style=&quot;margin:0px;margin-left:4px;&quot;&gt;+ sortir: nvarchar(50)&lt;/p&gt;&lt;p style=&quot;margin:0px;margin-left:4px;&quot;&gt;+ perubahan_sortir: nvarchar(50)&lt;/p&gt;&lt;p style=&quot;margin:0px;margin-left:4px;&quot;&gt;+ request_to: nvarchar(50)&lt;/p&gt;&lt;p style=&quot;margin:0px;margin-left:4px;&quot;&gt;+ nama_spv: nvarchar(100)&lt;/p&gt;&lt;p style=&quot;margin:0px;margin-left:4px;&quot;&gt;+ request_by nvarchar(100)&lt;/p&gt;&lt;p style=&quot;margin:0px;margin-left:4px;&quot;&gt;+ checked_by: nvarchar(50)&lt;/p&gt;&lt;p style=&quot;margin:0px;margin-left:4px;&quot;&gt;+ approved_by: nvarchar(50)&lt;/p&gt;&lt;p style=&quot;margin:0px;margin-left:4px;&quot;&gt;+ jabatan_request: nvarchar(50)&lt;/p&gt;&lt;p style=&quot;margin:0px;margin-left:4px;&quot;&gt;+ jabatan_checked: nvarchar(50)&lt;/p&gt;&lt;p style=&quot;margin:0px;margin-left:4px;&quot;&gt;+ jabatan_approved: nvarchar(50)&lt;/p&gt;&lt;p style=&quot;margin:0px;margin-left:4px;&quot;&gt;+ status_sortir: nvarchar(50)&lt;/p&gt;&lt;p style=&quot;margin:0px;margin-left:4px;&quot;&gt;+&amp;nbsp;sortir_by: nvarchar(50)&lt;/p&gt;&lt;p style=&quot;margin:0px;margin-left:4px;&quot;&gt;+ sortir_checked_by: nvarchar(50)&lt;/p&gt;&lt;p style=&quot;margin:0px;margin-left:4px;&quot;&gt;+ sortir_approved_by: nvarchar(50)&lt;/p&gt;&lt;hr size=&quot;1&quot;&gt;&lt;p style=&quot;margin:0px;margin-left:4px;&quot;&gt;+ add()&lt;/p&gt;&lt;p style=&quot;margin:0px;margin-left:4px;&quot;&gt;+ edit()&lt;/p&gt;&lt;p style=&quot;margin:0px;margin-left:4px;&quot;&gt;+ delete()&lt;/p&gt;&lt;p style=&quot;margin:0px;margin-left:4px;&quot;&gt;+ view()&lt;/p&gt;" style="verticalAlign=top;align=left;overflow=fill;html=1;whiteSpace=wrap;" vertex="1" parent="1">
          <mxGeometry x="420" y="200" width="320" height="650" as="geometry" />
        </mxCell>
        <mxCell id="s2jeRjrW5CzpTrKZsJKX-2" value="&lt;p style=&quot;margin:0px;margin-top:4px;text-align:center;&quot;&gt;&lt;b&gt;db_Material_Lot_Control&lt;/b&gt;&lt;/p&gt;&lt;p style=&quot;margin:0px;margin-top:4px;text-align:center;&quot;&gt;&lt;b&gt;tb_daftar_material_names&lt;/b&gt;&lt;/p&gt;&lt;hr size=&quot;1&quot;&gt;&lt;p style=&quot;margin:0px;margin-left:4px;&quot;&gt;+ id: int&lt;/p&gt;&lt;p style=&quot;margin:0px;margin-left:4px;&quot;&gt;+ line_id: int&lt;/p&gt;&lt;p style=&quot;margin:0px;margin-left:4px;&quot;&gt;+ part_number: nvarchar(255)&lt;/p&gt;&lt;p style=&quot;margin:0px;margin-left:4px;&quot;&gt;+ part_name: nvarchar(255)&lt;/p&gt;&lt;p style=&quot;margin:0px;margin-left:4px;&quot;&gt;+ keterangan: nvarchar(255)&lt;/p&gt;&lt;p style=&quot;margin:0px;margin-left:4px;&quot;&gt;+ qty: int&lt;/p&gt;&lt;p style=&quot;margin:0px;margin-left:4px;&quot;&gt;+ create_at: datetime&lt;/p&gt;&lt;p style=&quot;margin:0px;margin-left:4px;&quot;&gt;+ update_at: datetime&lt;/p&gt;&lt;hr size=&quot;1&quot;&gt;&lt;p style=&quot;margin:0px;margin-left:4px;&quot;&gt;+ add()&lt;/p&gt;&lt;p style=&quot;margin:0px;margin-left:4px;&quot;&gt;+ edit()&lt;/p&gt;&lt;p style=&quot;margin:0px;margin-left:4px;&quot;&gt;+ delete()&lt;/p&gt;" style="verticalAlign=top;align=left;overflow=fill;html=1;whiteSpace=wrap;" vertex="1" parent="1">
          <mxGeometry x="160" y="200" width="200" height="230" as="geometry" />
        </mxCell>
        <mxCell id="s2jeRjrW5CzpTrKZsJKX-3" value="" style="endArrow=open;endFill=1;endSize=12;html=1;rounded=0;exitX=-0.003;exitY=0.133;exitDx=0;exitDy=0;exitPerimeter=0;entryX=0.996;entryY=0.376;entryDx=0;entryDy=0;entryPerimeter=0;edgeStyle=orthogonalEdgeStyle;" edge="1" parent="1" source="s2jeRjrW5CzpTrKZsJKX-1" target="s2jeRjrW5CzpTrKZsJKX-2">
          <mxGeometry width="160" relative="1" as="geometry">
            <mxPoint x="280" y="285" as="sourcePoint" />
            <mxPoint x="280" y="286" as="targetPoint" />
          </mxGeometry>
        </mxCell>
        <mxCell id="s2jeRjrW5CzpTrKZsJKX-4" value="" style="endArrow=open;endFill=1;endSize=12;html=1;rounded=0;exitX=0.002;exitY=0.158;exitDx=0;exitDy=0;exitPerimeter=0;entryX=1.001;entryY=0.451;entryDx=0;entryDy=0;entryPerimeter=0;" edge="1" parent="1" source="s2jeRjrW5CzpTrKZsJKX-1" target="s2jeRjrW5CzpTrKZsJKX-2">
          <mxGeometry width="160" relative="1" as="geometry">
            <mxPoint x="399" y="301" as="sourcePoint" />
            <mxPoint x="280" y="301" as="targetPoint" />
          </mxGeometry>
        </mxCell>
        <mxCell id="s2jeRjrW5CzpTrKZsJKX-5" value="&lt;p style=&quot;margin:0px;margin-top:4px;text-align:center;&quot;&gt;&lt;b&gt;db_Material_Lot_Control&lt;/b&gt;&lt;/p&gt;&lt;p style=&quot;margin:0px;margin-top:4px;text-align:center;&quot;&gt;&lt;b&gt;tb_customer&lt;/b&gt;&lt;/p&gt;&lt;hr size=&quot;1&quot;&gt;&lt;p style=&quot;margin:0px;margin-left:4px;&quot;&gt;+ id: bigint&lt;/p&gt;&lt;p style=&quot;margin:0px;margin-left:4px;&quot;&gt;+ custno: nvarchar(50)&lt;/p&gt;&lt;p style=&quot;margin:0px;margin-left:4px;&quot;&gt;+ cust_name: nvarchar(255)&lt;/p&gt;&lt;p style=&quot;margin:0px;margin-left:4px;&quot;&gt;+ cust_keterangan: nvarchar(255)&lt;/p&gt;&lt;p style=&quot;margin:0px;margin-left:4px;&quot;&gt;+ create_at: datetime&lt;/p&gt;&lt;p style=&quot;margin:0px;margin-left:4px;&quot;&gt;+ update_at: datetime&lt;/p&gt;&lt;hr size=&quot;1&quot;&gt;&lt;p style=&quot;margin:0px;margin-left:4px;&quot;&gt;+ add()&lt;/p&gt;&lt;p style=&quot;margin:0px;margin-left:4px;&quot;&gt;+ edit()&lt;/p&gt;&lt;p style=&quot;margin:0px;margin-left:4px;&quot;&gt;+ delete()&lt;/p&gt;" style="verticalAlign=top;align=left;overflow=fill;html=1;whiteSpace=wrap;" vertex="1" parent="1">
          <mxGeometry x="827" y="200" width="200" height="230" as="geometry" />
        </mxCell>
        <mxCell id="s2jeRjrW5CzpTrKZsJKX-8" value="" style="endArrow=open;endFill=1;endSize=12;html=1;rounded=0;entryX=-0.002;entryY=0.369;entryDx=0;entryDy=0;entryPerimeter=0;edgeStyle=orthogonalEdgeStyle;exitX=0.999;exitY=0.176;exitDx=0;exitDy=0;exitPerimeter=0;" edge="1" parent="1" source="s2jeRjrW5CzpTrKZsJKX-1" target="s2jeRjrW5CzpTrKZsJKX-5">
          <mxGeometry width="160" relative="1" as="geometry">
            <mxPoint x="750" y="315" as="sourcePoint" />
            <mxPoint x="750" y="296" as="targetPoint" />
            <Array as="points">
              <mxPoint x="790" y="314" />
              <mxPoint x="790" y="285" />
            </Array>
          </mxGeometry>
        </mxCell>
        <mxCell id="s2jeRjrW5CzpTrKZsJKX-9" value="" style="endArrow=open;endFill=1;endSize=12;html=1;rounded=0;edgeStyle=orthogonalEdgeStyle;entryX=-0.007;entryY=0.365;entryDx=0;entryDy=0;entryPerimeter=0;" edge="1" parent="1" source="s2jeRjrW5CzpTrKZsJKX-1" target="s2jeRjrW5CzpTrKZsJKX-5">
          <mxGeometry width="160" relative="1" as="geometry">
            <mxPoint x="770" y="329" as="sourcePoint" />
            <mxPoint x="830" y="290" as="targetPoint" />
            <Array as="points">
              <mxPoint x="790" y="329" />
              <mxPoint x="790" y="284" />
            </Array>
          </mxGeometry>
        </mxCell>
      </root>
    </mxGraphModel>
  </diagram>
</mxfile>
